<?xml version="1.0" encoding="UTF-8" standalone="no"?>
<!-- Created with Inkscape (http://www.inkscape.org/) -->

<svg
   xmlns:dc="http://purl.org/dc/elements/1.1/"
   xmlns:cc="http://creativecommons.org/ns#"
   xmlns:rdf="http://www.w3.org/1999/02/22-rdf-syntax-ns#"
   xmlns:svg="http://www.w3.org/2000/svg"
   xmlns="http://www.w3.org/2000/svg"
   xmlns:sodipodi="http://sodipodi.sourceforge.net/DTD/sodipodi-0.dtd"
   xmlns:inkscape="http://www.inkscape.org/namespaces/inkscape"
   width="32"
   height="32"
   viewBox="0 0 8.4666665 8.4666669"
   version="1.1"
   id="svg8"
   inkscape:version="0.92.5 (2060ec1f9f, 2020-04-08)"
   sodipodi:docname="SlideViewport.svg">
  <defs
     id="defs2" />
  <sodipodi:namedview
     id="base"
     pagecolor="#ffffff"
     bordercolor="#666666"
     borderopacity="1.0"
     inkscape:pageopacity="0.0"
     inkscape:pageshadow="2"
     inkscape:zoom="11.2"
     inkscape:cx="16.311385"
     inkscape:cy="14.065914"
     inkscape:document-units="mm"
     inkscape:current-layer="layer1"
     showgrid="false"
     units="px"
     inkscape:window-width="1440"
     inkscape:window-height="836"
     inkscape:window-x="0"
     inkscape:window-y="27"
     inkscape:window-maximized="1" />
  <metadata
     id="metadata5">
    <rdf:RDF>
      <cc:Work
         rdf:about="">
        <dc:format>image/svg+xml</dc:format>
        <dc:type
           rdf:resource="http://purl.org/dc/dcmitype/StillImage" />
        <dc:title></dc:title>
      </cc:Work>
    </rdf:RDF>
  </metadata>
  <g
     inkscape:label="Layer 1"
     inkscape:groupmode="layer"
     id="layer1"
     transform="translate(0,-288.53332)">
    <path
       style="fill:#ff6600;stroke:none;stroke-width:1.41220605"
       d="M 4 0 C 1.7840001 0 0 1.7840001 0 4 L 0 28 C 0 30.216 1.7840001 32 4 32 L 28 32 C 30.216 32 32 30.216 32 28 L 32 4 C 32 1.7840001 30.216 0 28 0 L 4 0 z M 6.6113281 3.4824219 L 25.388672 3.4824219 C 27.122395 3.4824219 28.517578 4.877605 28.517578 6.6113281 L 28.517578 25.388672 C 28.517578 27.122395 27.122395 28.517578 25.388672 28.517578 L 6.6113281 28.517578 C 4.877605 28.517578 3.4824219 27.122395 3.4824219 25.388672 L 3.4824219 6.6113281 C 3.4824219 4.877605 4.877605 3.4824219 6.6113281 3.4824219 z "
       transform="matrix(0.26458333,0,0,0.26458333,0,288.53332)"
       id="rect874" />
    <circle
       style="fill:#ff6600;stroke:none;stroke-width:0.28222221"
       id="path881"
       cx="4.2333331"
       cy="292.76666"
       r="1.5875" />
  </g>
</svg>
