<?xml version="1.0" encoding="UTF-8"?>
<svg version="1.1" viewBox="0 0 798 343.29" xmlns="http://www.w3.org/2000/svg" xmlns:cc="http://creativecommons.org/ns#" xmlns:dc="http://purl.org/dc/elements/1.1/" xmlns:rdf="http://www.w3.org/1999/02/22-rdf-syntax-ns#">
<metadata>
<rdf:RDF>
<cc:Work rdf:about="">
<dc:format>image/svg+xml</dc:format>
<dc:type rdf:resource="http://purl.org/dc/dcmitype/StillImage"/>
<dc:title/>
</cc:Work>
</rdf:RDF>
</metadata>
<g transform="translate(-46.13 -300.93)">
<circle cx="217.78" cy="472.58" r="168.3" fill-rule="evenodd" stroke="#000" stroke-width="6.6959"/>
</g>
<g transform="translate(6.4028 -224.29)">
<g transform="matrix(1.0017 0 0 .99941 -34.459 -227.25)" fill="#ebe9cf" stroke="#000" stroke-linejoin="round" stroke-width="7.8339">
<g fill="#ebe9cf" stroke="#000" stroke-linejoin="round" stroke-width="7.8339">
<path d="m247.94 624.4c0 19.547-16.123 35.748-35.748 35.748-19.889 0-35.841-16.092-35.841-36.215 0-19.173 16.419-35.374 35.841-35.374 19.625 0 35.748 16.092 35.748 35.841zm-65.364-0.29568c0 16.465 13.306 29.818 29.616 29.818 16.123 0 29.523-13.353 29.523-29.429 0-16.263-13.4-29.709-29.523-29.709-16.03 0-29.616 13.446-29.616 29.32zm158.74 0.29568c0 19.547-16.123 35.748-35.748 35.748-19.889 0-35.841-16.092-35.841-36.215 0-19.173 16.419-35.374 35.841-35.374 19.625 0 35.748 16.092 35.748 35.841zm-65.364-0.29568c0 16.465 13.306 29.818 29.616 29.818 16.123 0 29.523-13.353 29.523-29.429 0-16.263-13.4-29.709-29.523-29.709-16.03 0-29.616 13.446-29.616 29.32zm90.264-33.989h8.6062l38.082 56.804v-56.804h6.2251v68.476h-6.2251l-40.463-60.228v60.228h-6.2251zm77.882-0.32653h6.3979l16.416 56.365 15.518-56.291h6.5519l15.175 57.179 16.816-57.074h6.2038l-19.42 68.476-6.8384-0.1046-15.329-56.15-15.111 56.15-7.0196-0.074zm119.53 0.32654h7.7347l29.678 68.476h-7.548l-10.007-23.344h-32.122l-10.069 23.344h-7.2834zm17.166 38.907-13.259-31.172-13.54 31.172zm85.113 29.569h-7.9059l-23.126-31.032c7.6102 0 12.077-0.35794 15.314-1.1828 6.8788-1.8831 10.412-6.6609 10.412-14.442 0-6.2096-2.599-10.847-7.2523-13.073-3.7195-1.7742-8.5284-2.49-15.781-2.49h-9.6489v62.22h-6.2251v-68.476h16.341c8.7774 0 14.567 1.0271 18.753 3.3304 6.5052 3.6261 10.038 10.116 10.038 18.753 0 12.123-6.8165 19.453-19.5 20.839zm24.262-68.476h15.734c12.45 0 19.718 1.4785 26.208 5.3692 10.24 6.0384 15.641 16.232 15.641 29.118 0 12.793-5.4781 22.784-15.874 28.884-6.054 3.5172-13.306 5.1046-23.624 5.1046h-18.084zm15.999 62.22c12.45 0 19.671-1.743 25.29-6.1006 6.4429-5.0735 10.069-12.964 10.069-21.928 0-10.194-4.6376-18.769-12.746-23.484-5.2914-3.1748-11.968-4.451-22.613-4.451h-9.7734v55.964zm69.982-12.59c0.58612 4.2798 1.6976 6.6142 4.2237 9.042 3.2535 3.1592 8.6897 5.1357 14.368 5.1357 10.286 0 17.905-5.7582 17.905-13.695 0-4.202-2.1422-7.7347-6.103-9.8668-2.8695-1.603-6.689-2.8947-13.641-4.5754-10.246-2.4278-12.994-3.4549-16.47-6.0695-3.9609-2.8947-6.2243-7.4546-6.2243-12.217 0-10.941 10.064-18.94 24.028-18.94 14.368 0 24.23 7.6102 24.574 19.033h-8.629c-0.6063-7.7502-7.0124-12.808-16.187-12.808-9.0737 0-15.702 5.3536-15.702 12.528 0 3.1592 1.6773 6.2407 4.2033 8.0148 2.3645 1.5874 5.0118 2.4122 13.014 4.2798 9.0938 2.1477 12.772 3.4549 16.369 5.4936 5.6382 3.2682 8.8513 8.684 8.8513 14.738 0 11.672-11.175 20.309-26.231 20.309-15.662 0-26.372-8.0771-27.201-20.403z"/>
<path d="m77.142 658.73h6.5765l16.416-56.365 15.518 56.291h6.5519l15.175-57.179 16.816 57.074h6.3823l-19.504-68.476-6.9334 0.1046-15.329 56.15-15.111-56.15-7.1149 0.074z"/>
</g>
</g>
</g>
<g transform="translate(-34.406 -265.64)">
<g transform="translate(40.809 41.356)">
<path d="m0.4979 396.38c-0.095258 87.77 70.109 155.84 154.94 155.55-58.462 0-130.41-61.557-130.37-153.48 0.041534-94.286 72.391-156.14 130.37-156.14-82.918 0.29564-154.85 67.106-154.94 154.07z" fill="#dcdcd4"/>
</g>
<g transform="translate(-11.724 -35.289)" fill="#ff0" stroke-linejoin="round">
<circle cx="203.15" cy="585.36" r="8.282" stroke="#fff" stroke-opacity=".19838" stroke-width="19.353"/>
<circle cx="209.61" cy="543" r="7.6816" stroke="#ffffa5" stroke-opacity=".27807" stroke-width="28.066"/>
<circle cx="277.95" cy="516.47" r="5.7043" stroke="#fff" stroke-opacity=".19838" stroke-width="13.329"/>
<circle cx="175.12" cy="470.45" r="7.3614" stroke="#fff" stroke-opacity=".19838" stroke-width="17.201"/>
<circle cx="217.34" cy="406.3" r="6.9932" stroke="#fff" stroke-opacity=".19838" stroke-width="16.341"/>
<circle cx="243.28" cy="431.77" r="8.5013" stroke="#ffffb7" stroke-opacity=".28342" stroke-width="33.963"/>
<circle cx="249.67" cy="483.21" r="5.7043" stroke="#fff" stroke-opacity=".32086" stroke-width="13.33"/>
<circle cx="322.99" cy="444.34" r="7.1773" stroke="#fff" stroke-opacity=".3262" stroke-width="16.771"/>
<circle cx="309.48" cy="391.05" r="5.7043" stroke="#fff" stroke-opacity=".29947" stroke-width="13.329"/>
<circle cx="264.59" cy="407.97" r="7.7296" stroke="#fff" stroke-opacity=".27807" stroke-width="18.062"/>
<circle cx="256.87" cy="375.31" r="8.8343" stroke="#fff" stroke-opacity=".19838" stroke-width="20.643"/>
<circle cx="216.94" cy="570.66" r="5.7043" stroke="#fff" stroke-opacity=".28877" stroke-width="13.329"/>
<circle cx="301.31" cy="553.68" r="4.4429" stroke="#ffec00" stroke-opacity=".36842" stroke-width="18.574"/>
<circle cx="259.3" cy="517.98" r="5.4658" stroke="#ffec00" stroke-opacity=".36842" stroke-width="16.002"/>
<circle cx="129.33" cy="551.44" r="4.8176" stroke="#ffec00" stroke-opacity=".36842" stroke-width="14.105"/>
<circle cx="174.25" cy="582.87" r="7.0861" stroke="#ffec00" stroke-opacity=".18182" stroke-width="20.746"/>
<circle cx="171.15" cy="350.62" r="4.9797" stroke="#ffec00" stroke-opacity=".36842" stroke-width="14.579"/>
<circle cx="201.84" cy="355.95" r="5.4658" stroke="#ffec00" stroke-opacity=".36842" stroke-width="16.002"/>
</g>
</g>
<g transform="translate(6.4028 -224.29)">
<g transform="matrix(1.0017 0 0 .99941 -34.427 -227.41)" fill="#fff">
<g fill="#fff">
<path d="m247.94 624.4c0 19.547-16.123 35.748-35.748 35.748-19.889 0-35.841-16.092-35.841-36.215 0-19.173 16.419-35.374 35.841-35.374 19.625 0 35.748 16.092 35.748 35.841zm-65.364-0.29568c0 16.465 13.306 29.818 29.616 29.818 16.123 0 29.523-13.353 29.523-29.429 0-16.263-13.4-29.709-29.523-29.709-16.03 0-29.616 13.446-29.616 29.32zm158.74 0.29568c0 19.547-16.123 35.748-35.748 35.748-19.889 0-35.841-16.092-35.841-36.215 0-19.173 16.419-35.374 35.841-35.374 19.625 0 35.748 16.092 35.748 35.841zm-65.364-0.29568c0 16.465 13.306 29.818 29.616 29.818 16.123 0 29.523-13.353 29.523-29.429 0-16.263-13.4-29.709-29.523-29.709-16.03 0-29.616 13.446-29.616 29.32zm90.264-33.989h8.6062l38.082 56.804v-56.804h6.2251v68.476h-6.2251l-40.463-60.228v60.228h-6.2251zm77.882-0.32653h6.3979l16.416 56.365 15.518-56.291h6.5519l15.175 57.179 16.816-57.074h6.2038l-19.42 68.476-6.8384-0.1046-15.329-56.15-15.111 56.15-7.0196-0.074zm119.53 0.32654h7.7347l29.678 68.476h-7.548l-10.007-23.344h-32.122l-10.069 23.344h-7.2834zm17.166 38.907-13.259-31.172-13.54 31.172zm85.113 29.569h-7.9059l-23.126-31.032c7.6102 0 12.077-0.35794 15.314-1.1828 6.8788-1.8831 10.412-6.6609 10.412-14.442 0-6.2096-2.599-10.847-7.2523-13.073-3.7195-1.7742-8.5284-2.49-15.781-2.49h-9.6489v62.22h-6.2251v-68.476h16.341c8.7774 0 14.567 1.0271 18.753 3.3304 6.5052 3.6261 10.038 10.116 10.038 18.753 0 12.123-6.8165 19.453-19.5 20.839zm24.262-68.476h15.734c12.45 0 19.718 1.4785 26.208 5.3692 10.24 6.0384 15.641 16.232 15.641 29.118 0 12.793-5.4781 22.784-15.874 28.884-6.054 3.5172-13.306 5.1046-23.624 5.1046h-18.084zm15.999 62.22c12.45 0 19.671-1.743 25.29-6.1006 6.4429-5.0735 10.069-12.964 10.069-21.928 0-10.194-4.6376-18.769-12.746-23.484-5.2914-3.1748-11.968-4.451-22.613-4.451h-9.7734v55.964zm69.982-12.59c0.58612 4.2798 1.6976 6.6142 4.2237 9.042 3.2535 3.1592 8.6897 5.1357 14.368 5.1357 10.286 0 17.905-5.7582 17.905-13.695 0-4.202-2.1422-7.7347-6.103-9.8668-2.8695-1.603-6.689-2.8947-13.641-4.5754-10.246-2.4278-12.994-3.4549-16.47-6.0695-3.9609-2.8947-6.2243-7.4546-6.2243-12.217 0-10.941 10.064-18.94 24.028-18.94 14.368 0 24.23 7.6102 24.574 19.033h-8.629c-0.6063-7.7502-7.0124-12.808-16.187-12.808-9.0737 0-15.702 5.3536-15.702 12.528 0 3.1592 1.6773 6.2407 4.2033 8.0148 2.3645 1.5874 5.0118 2.4122 13.014 4.2798 9.0938 2.1477 12.772 3.4549 16.369 5.4936 5.6382 3.2682 8.8513 8.684 8.8513 14.738 0 11.672-11.175 20.309-26.231 20.309-15.662 0-26.372-8.0771-27.201-20.403z"/>
<path d="m77.142 658.73h6.5765l16.416-56.365 15.518 56.291h6.5519l15.175-57.179 16.816 57.074h6.3823l-19.504-68.476-6.9334 0.1046-15.329 56.15-15.111-56.15-7.1149 0.074z"/>
</g>
</g>
</g>
</svg>
